<?xml version="1.0" standalone="no"?>
<!DOCTYPE svg PUBLIC "-//W3C//DTD SVG 20010904//EN"
 "http://www.w3.org/TR/2001/REC-SVG-20010904/DTD/svg10.dtd">
<svg version="1.0" xmlns="http://www.w3.org/2000/svg"
 width="192.000000pt" height="192.000000pt" viewBox="0 0 192.000000 192.000000"
 preserveAspectRatio="xMidYMid meet">
<metadata>
Created by potrace 1.14, written by Peter Selinger 2001-2017
</metadata>
<g transform="translate(0.000000,192.000000) scale(0.100000,-0.100000)"
fill="#000000" stroke="none">
<path d="M120 955 l0 -835 840 0 840 0 0 835 0 835 -840 0 -840 0 0 -835z
m345 555 c3 -5 44 -172 90 -371 47 -200 87 -364 90 -367 7 -7 5 -11 100 363
47 187 90 350 95 363 10 22 13 23 122 20 l112 -3 94 -378 c52 -208 98 -375
102 -370 3 4 44 168 90 363 46 195 87 363 92 373 8 15 24 17 123 17 72 0 115
-4 115 -10 0 -14 -290 -1092 -296 -1102 -3 -4 -60 -8 -128 -8 l-122 0 -88 363
c-49 199 -92 368 -96 376 -4 7 -49 -156 -99 -363 l-93 -376 -126 0 -127 0
-146 553 c-81 303 -144 555 -142 560 6 11 231 9 238 -3z"/>
</g>
</svg>
